<?xml version="1.0" encoding="UTF-8"?>
<svg width="200px" height="14px" viewBox="0 0 200 14" version="1.1" xmlns="http://www.w3.org/2000/svg" xmlns:xlink="http://www.w3.org/1999/xlink">
    <!-- Generator: Sketch 46.2 (44496) - http://www.bohemiancoding.com/sketch -->
    <title>Logo Copy</title>
    <desc>Created with Sketch.</desc>
    <defs></defs>
    <g id="Page-1" stroke="none" stroke-width="1" fill="none" fill-rule="evenodd">
        <g id="desktop" transform="translate(-35.000000, -2151.000000)" fill="#000000">
            <g id="Footer" transform="translate(0.000000, 2130.000000)">
                <g id="Logo-Copy" transform="translate(35.000000, 21.000000)">
                    <polygon id="Fill-1" points="35.9374266 0.000135440181 35.9374266 13.5441535 43.1956659 13.5441535 43.1956659 12.1008126 37.3807675 12.1008126 37.3807675 7.49358916 42.7536795 7.49358916 42.7536795 6.05069977 37.3807675 6.05069977 37.3807675 1.44302483 43.1956659 1.44302483 43.1956659 0.000135440181"></polygon>
                    <polygon id="Fill-2" points="0 0.000135440181 0 1.44302483 3.69390519 1.44302483 3.69390519 13.5441535 5.13724605 13.5441535 5.13724605 1.44302483 8.83115124 1.44302483 8.83115124 0.000135440181"></polygon>
                    <polygon id="Fill-3" points="25.464921 0.000135440181 25.464921 6.05069977 18.5168397 6.05069977 18.5168397 0.000135440181 17.0739503 0.000135440181 17.0739503 13.5441535 18.5168397 13.5441535 18.5168397 7.49358916 25.464921 7.49358916 25.464921 13.5441535 26.9078104 13.5441535 26.9078104 0.000135440181"></polygon>
                    <path d="M72.2263205,0.000135440181 L72.2263205,5.08501129 L65.2777878,5.08501129 L65.2777878,0.000135440181 L63.8348984,0.000135440181 L63.8348984,13.5441535 L65.2777878,13.5441535 L65.2777878,9.27688488 L72.2263205,9.27688488 L72.2263205,13.5441535 L73.6696614,13.5441535 L73.6696614,0.000135440181 L72.2263205,0.000135440181 Z M65.2777878,7.49358916 L65.2777878,6.52835214 L72.2263205,6.52835214 L72.2263205,7.49358916 L72.2263205,7.83399549 L65.2777878,7.83399549 L65.2777878,7.49358916 Z" id="Fill-4"></path>
                    <polygon id="Fill-5" points="82.6988262 0.000135440181 82.6988262 13.5441535 89.956614 13.5441535 89.956614 12.1008126 84.1417156 12.1008126 84.1417156 7.49358916 89.5146275 7.49358916 89.5146275 6.05069977 84.1417156 6.05069977 84.1417156 1.44302483 89.956614 1.44302483 89.956614 0.000135440181"></polygon>
                    <polygon id="Fill-6" points="107.924018 0.000135440181 103.903251 5.54325056 99.8820316 0.000135440181 98.0991874 0.000135440181 103.011603 6.77214447 98.0991874 13.5441535 99.8820316 13.5441535 103.903251 8.00103837 107.924018 13.5441535 109.706411 13.5441535 104.793995 6.77214447 109.706411 0.000135440181"></polygon>
                    <path d="M121.062799,0.000135440181 L115.38605,13.5441535 L116.950384,13.5441535 L118.70298,9.36446953 L124.301174,9.36446953 L126.010429,13.5441535 L127.570248,13.5441535 L122.027133,0.000135440181 L121.062799,0.000135440181 Z M121.535485,2.60645598 L123.710655,7.92158014 L119.307946,7.92158014 L121.535485,2.60645598 Z" id="Fill-7"></path>
                    <polygon id="Fill-8" points="183.460226 0.000135440181 183.460226 10.578465 175.87377 0.000135440181 174.645779 0.000135440181 174.645779 13.5441535 176.08912 13.5441535 176.08912 2.77485327 183.810113 13.5441535 184.903115 13.5441535 184.903115 0.000135440181"></polygon>
                    <path d="M156.642257,0.136659142 L152.811558,6.77232506 L156.642257,13.407088 L164.304108,13.407088 L168.13526,6.77232506 L164.304108,0.136659142 L156.642257,0.136659142 Z M154.477472,6.77232506 L157.475214,1.57954853 L163.471151,1.57954853 L166.469345,6.77232506 L163.471151,11.9641986 L157.475214,11.9641986 L154.477472,6.77232506 Z" id="Fill-9"></path>
                    <polygon id="Fill-10" points="136.430655 0.136659142 132.599955 6.77232506 136.430655 13.407088 144.092957 13.407088 146.950293 7.4310158 146.93088 6.05088036 139.669029 6.05088036 139.669029 7.49331828 145.24781 7.49331828 143.26 11.9641986 137.26316 11.9641986 134.265869 6.77232506 137.26316 1.57954853 143.676704 1.57954853 143.676704 0.136659142"></polygon>
                    <polygon id="Fill-11" points="194.117201 0.02248307 191.607494 2.53309255 191.607494 6.12948081 198.503205 7.98139955 198.503205 10.4139052 196.838646 12.078465 194.57228 12.078465 193.159639 10.6193228 191.182664 10.6531828 193.960993 13.5213544 197.436388 13.5213544 199.946095 11.0111964 199.946095 6.87530474 193.050384 5.023386 193.050384 3.13038375 194.714492 1.46582393 196.979052 1.46582393 197.834582 2.35837472 199.841806 2.36740406 197.594853 0.02248307"></polygon>
                </g>
            </g>
        </g>
    </g>
</svg>